<mxfile host="app.diagrams.net" modified="2022-03-22T13:58:06.332Z" agent="5.0 (Windows NT 10.0; Win64; x64) AppleWebKit/537.36 (KHTML, like Gecko) Chrome/99.0.4844.74 Safari/537.36" etag="gXN4FRpks-bKod2dnu2z" version="17.1.4" type="github">
  <diagram id="vIyuVXFn4PjPEM2gkq0P" name="Page-1">
    <mxGraphModel dx="1422" dy="754" grid="1" gridSize="10" guides="1" tooltips="1" connect="1" arrows="1" fold="1" page="1" pageScale="1" pageWidth="827" pageHeight="1169" math="0" shadow="0">
      <root>
        <mxCell id="0" />
        <mxCell id="1" parent="0" />
        <mxCell id="vr1q-ZdZD_oYZHNM6nkK-5" value="" style="group" vertex="1" connectable="0" parent="1">
          <mxGeometry x="70" y="520" width="320" height="90" as="geometry" />
        </mxCell>
        <mxCell id="vr1q-ZdZD_oYZHNM6nkK-1" value="" style="rounded=0;whiteSpace=wrap;html=1;fillColor=none;" vertex="1" parent="vr1q-ZdZD_oYZHNM6nkK-5">
          <mxGeometry width="320" height="90" as="geometry" />
        </mxCell>
        <mxCell id="vr1q-ZdZD_oYZHNM6nkK-3" value="xxxxxxxxxxxxxxxxxxxxxxxxxxxxxxxxxx" style="text;html=1;strokeColor=none;fillColor=none;align=center;verticalAlign=middle;whiteSpace=wrap;rounded=0;" vertex="1" parent="vr1q-ZdZD_oYZHNM6nkK-5">
          <mxGeometry x="30" y="20" width="170" height="30" as="geometry" />
        </mxCell>
        <mxCell id="vr1q-ZdZD_oYZHNM6nkK-2" value="" style="rounded=1;whiteSpace=wrap;html=1;fillColor=#FFFFFF;strokeColor=#000000;shadow=1;sketch=0;arcSize=10;" vertex="1" parent="1">
          <mxGeometry x="240" y="210" width="390" height="210" as="geometry" />
        </mxCell>
        <mxCell id="vr1q-ZdZD_oYZHNM6nkK-9" value="" style="group" vertex="1" connectable="0" parent="1">
          <mxGeometry x="70" y="110" width="70" height="30" as="geometry" />
        </mxCell>
        <mxCell id="vr1q-ZdZD_oYZHNM6nkK-6" value="" style="line;strokeWidth=2;html=1;rounded=1;shadow=0;sketch=0;fillColor=#FFFFFF;" vertex="1" parent="vr1q-ZdZD_oYZHNM6nkK-9">
          <mxGeometry width="70" height="10" as="geometry" />
        </mxCell>
        <mxCell id="vr1q-ZdZD_oYZHNM6nkK-7" value="" style="line;strokeWidth=2;html=1;rounded=1;shadow=0;sketch=0;fillColor=#FFFFFF;verticalAlign=bottom;" vertex="1" parent="vr1q-ZdZD_oYZHNM6nkK-9">
          <mxGeometry x="10" y="10" width="50" height="10" as="geometry" />
        </mxCell>
        <mxCell id="vr1q-ZdZD_oYZHNM6nkK-8" value="" style="line;strokeWidth=2;html=1;rounded=1;shadow=0;sketch=0;fillColor=#FFFFFF;" vertex="1" parent="vr1q-ZdZD_oYZHNM6nkK-9">
          <mxGeometry x="15" y="20" width="40" height="10" as="geometry" />
        </mxCell>
        <mxCell id="vr1q-ZdZD_oYZHNM6nkK-12" value="+&amp;nbsp; Add Filter" style="rounded=1;whiteSpace=wrap;html=1;shadow=0;sketch=0;strokeColor=#000000;fillColor=#FFFFFF;" vertex="1" parent="1">
          <mxGeometry x="180" y="95" width="120" height="60" as="geometry" />
        </mxCell>
      </root>
    </mxGraphModel>
  </diagram>
</mxfile>
